<svg xmlns="http://www.w3.org/2000/svg" xmlns:xlink="http://www.w3.org/1999/xlink" viewBox="0 0 795.77 515.84">
  <defs>
    <style>
      .cls-1 {
        isolation: isolate;
      }

      .cls-2 {
        fill: #ffbc27;
      }

      .cls-3 {
        fill: #4d75f4;
      }

      .cls-4 {
        fill: blue;
      }

      .cls-5 {
        opacity: 0.8;
      }

      .cls-13, .cls-6, .cls-7, .cls-8, .cls-9 {
        mix-blend-mode: multiply;
      }

      .cls-6 {
        fill: url(#Sfumatura_senza_nome_21);
      }

      .cls-7 {
        fill: url(#Sfumatura_senza_nome_11);
      }

      .cls-8 {
        fill: url(#Sfumatura_senza_nome_10);
      }

      .cls-10 {
        fill: url(#Sfumatura_senza_nome_13);
      }

      .cls-11 {
        fill: url(#Sfumatura_senza_nome_12);
      }

      .cls-12 {
        fill: url(#Sfumatura_senza_nome_16);
      }

      .cls-13 {
        fill: url(#Sfumatura_senza_nome_15);
      }
    </style>
    <linearGradient id="Sfumatura_senza_nome_21" data-name="Sfumatura senza nome 21" x1="290.5" y1="217.12" x2="291.63" y2="217.12" gradientUnits="userSpaceOnUse">
      <stop offset="0" stop-opacity="0.5"/>
      <stop offset="1" stop-color="#fff" stop-opacity="0"/>
    </linearGradient>
    <linearGradient id="Sfumatura_senza_nome_11" data-name="Sfumatura senza nome 11" x1="366.57" y1="432.08" x2="417.07" y2="224.47" gradientUnits="userSpaceOnUse">
      <stop offset="0.15" stop-opacity="0.5"/>
      <stop offset="1" stop-color="#fff" stop-opacity="0"/>
    </linearGradient>
    <linearGradient id="Sfumatura_senza_nome_10" data-name="Sfumatura senza nome 10" x1="407.39" y1="243.15" x2="489.84" y2="-117.34" gradientUnits="userSpaceOnUse">
      <stop offset="0.1" stop-opacity="0.5"/>
      <stop offset="1" stop-color="#fff" stop-opacity="0"/>
    </linearGradient>
    <linearGradient id="Sfumatura_senza_nome_13" data-name="Sfumatura senza nome 13" x1="292.47" y1="210.52" x2="335.73" y2="6.76" gradientUnits="userSpaceOnUse">
      <stop offset="1" stop-opacity="0.5"/>
      <stop offset="1" stop-color="#e1e1e1" stop-opacity="0.06"/>
      <stop offset="1" stop-color="#fff" stop-opacity="0"/>
    </linearGradient>
    <linearGradient id="Sfumatura_senza_nome_12" data-name="Sfumatura senza nome 12" x1="372.79" y1="326.27" x2="418.56" y2="110.73" gradientUnits="userSpaceOnUse">
      <stop offset="0.07" stop-opacity="0.5"/>
      <stop offset="1" stop-color="#fff" stop-opacity="0"/>
    </linearGradient>
    <linearGradient id="Sfumatura_senza_nome_16" data-name="Sfumatura senza nome 16" x1="272.41" y1="304.96" x2="318.18" y2="89.42" gradientUnits="userSpaceOnUse">
      <stop offset="1" stop-opacity="0.5"/>
      <stop offset="1" stop-color="#fff" stop-opacity="0"/>
    </linearGradient>
    <linearGradient id="Sfumatura_senza_nome_15" data-name="Sfumatura senza nome 15" x1="624.33" y1="98.1" x2="702.89" y2="16.64" xlink:href="#Sfumatura_senza_nome_21"/>
  </defs>
  <g class="cls-1">
    <g id="Livello_2" data-name="Livello 2">
      <g id="Livello_1-2" data-name="Livello 1">
        <g>
          <g>
            <path class="cls-2" d="M20.79,478.67,15,496.22H0l22.41-62.1H39.87L62,496.22H46.71L41,478.67ZM24.3,467.6H37.53L31,446.36Z"/>
            <path class="cls-2" d="M102,447.35v11.43C90.81,458.06,86,462.56,86,476.15v20.07H71.91v-48H86v9.18l3.6-6.66A12.71,12.71,0,0,1,98.37,447,19.38,19.38,0,0,1,102,447.35Z"/>
            <path class="cls-2" d="M160.47,472.19c0,14.94-9.45,25.29-25.29,25.29s-25.29-10.35-25.29-25.29,9.36-25.2,25.29-25.2S160.47,457.25,160.47,472.19Zm-14.58,0c0-10-4-15.48-10.71-15.48s-10.8,5.49-10.8,15.48,4.05,15.57,10.8,15.57S145.89,482.18,145.89,472.19Z"/>
            <path class="cls-2" d="M219.24,496.22h-14V488l-4,6.39A18.9,18.9,0,0,1,190,497.48c-9.9,0-15.84-5.58-16.92-12.15a60.6,60.6,0,0,1-.45-8.91V448.25h14v25.11a64.82,64.82,0,0,0,.36,6.57c.63,4.86,3.15,7.74,8.64,7.74,5.76,0,9.54-4.95,9.54-13.77V448.25h14Z"/>
            <path class="cls-2" d="M282.06,469.13v27.09H267.93V471.29c0-1.8,0-4.23-.18-6.66-.36-4.86-3.06-7.92-8.55-7.92s-9.72,5-9.72,17.28v22.23H235.35v-48h14.13v7.56l4-5.76A18.9,18.9,0,0,1,264.6,447c10.08,0,15.93,4.86,17,13.23A60.6,60.6,0,0,1,282.06,469.13Z"/>
            <path class="cls-2" d="M345.87,496.22H331.74V489l-3.6,5.31c-2.7,2.07-7.47,3.15-12.33,3.15-13.23,0-21.24-10.08-21.24-24.3C294.57,456,305.1,447,317.43,447c4,0,8.73,1,11.16,2.52l3.15,5V430.07h14.13Zm-14.13-23.4v-2.25c0-10.26-5.67-13.86-11-13.86-6.84,0-11.7,5.22-11.7,15.66,0,9.45,4.59,15.39,11.25,15.39C326.7,487.76,331.74,483.8,331.74,472.82Z"/>
            <path class="cls-3" d="M414.08,477.59c0,11.52-9,17.19-17.37,18.27a67.2,67.2,0,0,1-8.81.36H364.32v-62.1H388a59,59,0,0,1,8,.36c10.07,1.26,15.83,7.38,15.83,15.66,0,6-3.24,10.35-9.45,12.51C410.3,464.72,414.08,469.76,414.08,477.59Zm-35.63-18.45h8.46a29.74,29.74,0,0,0,4.13-.27c3.88-.63,6-2.7,6-6.84s-2.42-6.12-6.11-6.66a32.73,32.73,0,0,0-4.32-.27h-8.19Zm20.87,18.27c0-5-3.24-7.38-7.2-7.74a34.44,34.44,0,0,0-4.31-.18h-9.36v15.66h9.9c1.44,0,2.88,0,4-.09A7.29,7.29,0,0,0,399.32,477.41Z"/>
            <path class="cls-3" d="M442.08,436.82c0,4.41-3.06,7.2-7.56,7.2s-7.47-2.79-7.47-7.2,3-7.11,7.47-7.11S442.08,432.5,442.08,436.82Zm-14.58,59.4v-48h14.13v48Z"/>
            <path class="cls-3" d="M495.53,462.2H481.58c-.81-4-2.88-6.21-6.39-6.21-3.06,0-4.95,1.89-4.95,4.41,0,3.24,2.61,5,11.16,7.2,9.27,2.34,15.21,6.21,15.21,15.21,0,10-9.09,14.67-20.34,14.67-12.24,0-20.79-5.22-22-16h13.94c1,4.5,4.23,6.93,8.19,6.93,3.42,0,6.12-1.44,6.12-4.5,0-3.42-3.06-5.31-11.52-7.29-9-2.25-14.85-6.3-14.85-14.49,0-9.36,7.92-15.12,20-15.12C487.7,447,494.36,453.47,495.53,462.2Z"/>
            <path class="cls-3" d="M553.13,466H539.36c-1-6.57-4.32-9.27-9-9.27-5.94,0-9.72,4.86-9.72,15,0,11.16,3.87,16,9.72,16,4.32,0,7.74-3,8.82-8.55h14c-1.89,12.06-11.07,18.27-23.58,18.27-13.32,0-23.4-8.55-23.4-24.84,0-16.47,11-25.65,24.57-25.65C544.13,447,552.41,455.27,553.13,466Z"/>
            <path class="cls-3" d="M610.91,475.88H577.25c.81,9.18,4.77,11.88,10.08,11.88,4.95,0,8.28-2.7,9.09-7.2h14c-2.61,11.07-11.61,16.92-23.31,16.92-13.41,0-23.94-8.19-23.94-25.11C563.12,458,572.75,447,588,447s23.22,11.61,23.22,24.39A44.13,44.13,0,0,1,610.91,475.88ZM577.61,467h18.9c-.81-6.75-4-10.26-9.18-10.26C582.29,456.71,578.78,459.86,577.61,467Z"/>
            <path class="cls-3" d="M672.74,484.07c0,3,0,6.66-.09,9.27-.54,15.39-10.8,22.5-26.46,22.5-14.13,0-22.41-5.85-23.49-16.56l-.09-.9h13.68l.09.81c.45,3.87,4.32,6.21,10.17,6.21,6.93,0,11.52-3.33,11.88-10.44.09-1.71.18-3.78.18-6v-1.26L655,493c-2.7,2-6.75,3.15-11.61,3.15-13.32,0-22-9.27-22-23.49C621.44,455.45,632,447,644.3,447c4,0,8.73,1,11.16,2.52l3.15,5v-6.3h14.13Zm-14.13-12.6v-.9c0-10.26-5.67-13.86-11-13.86-6.84,0-11.7,4.41-11.7,14.85,0,9.45,4.59,14.85,11.25,14.85C653.57,486.41,658.61,482.45,658.61,471.47Z"/>
            <path class="cls-3" d="M702.62,479.84c0,2.07,0,3.15.09,4.41.27,2.16,1.26,2.88,5.49,2.7v9.63a81.44,81.44,0,0,1-8.46.45c-6.75,0-10.71-2.61-11.07-8.91-.18-2.34-.18-4.68-.18-8v-50h14.13Z"/>
            <path class="cls-3" d="M735,436.82c0,4.41-3.06,7.2-7.56,7.2s-7.47-2.79-7.47-7.2,3-7.11,7.47-7.11S735,432.5,735,436.82Zm-14.58,59.4v-48h14.13v48Z"/>
            <path class="cls-3" d="M795.5,475.88H761.84c.81,9.18,4.77,11.88,10.08,11.88,5,0,8.28-2.7,9.09-7.2h14c-2.61,11.07-11.61,16.92-23.31,16.92-13.41,0-23.94-8.19-23.94-25.11,0-14.4,9.63-25.38,24.84-25.38s23.22,11.61,23.22,24.39A44.13,44.13,0,0,1,795.5,475.88ZM762.2,467h18.9c-.81-6.75-4-10.26-9.18-10.26C766.88,456.71,763.37,459.86,762.2,467Z"/>
          </g>
          <g>
            <path class="cls-4" d="M290.5,216.94h0l1.13.35C291.25,217.19,290.88,217.07,290.5,216.94Z"/>
            <path class="cls-3" d="M534.36,263.51l-.17.74a125,125,0,0,1-24.33,51.95,120,120,0,0,1-44.81,34.73q-26.88,12.24-59.11,12.23H258.58L276.73,280a241.91,241.91,0,0,0,50.87-.7l-8,36.66h77.67q38.72,0,59.66-14.74t26.79-41.45l.17-.75c2.57-11.77,2.85-21.9.84-30.47v0c14.65-7.59,28.64-15.66,41.84-24.13a62.4,62.4,0,0,1,8,19.13Q539,242,534.36,263.51Z"/>
            <path class="cls-3" d="M565.35,46q-6.95-22-28.05-34T481,0H337.85L297.34,185.53a95.36,95.36,0,0,0,20.45,8.3c38.38,11,93.95,5.82,154.37-14.79a511.47,511.47,0,0,0,60.5-25.2,96.94,96.94,0,0,0,18.07-20.34,103.1,103.1,0,0,0,14.92-35.1Q572.28,67.94,565.35,46Zm-51.82,55.45q-5.65,26-22.92,39.21t-45.47,13.24H355L378.26,47.22h83.17q32,0,45,13.47T513.53,101.41Z"/>
            <g>
              <path class="cls-2" d="M290.5,216.94h0l1.13.35C291.25,217.19,290.88,217.07,290.5,216.94Z"/>
              <path class="cls-2" d="M624.52,96.56a519.27,519.27,0,0,1-73.06,47.58q-9.39,5.09-18.8,9.7a511.47,511.47,0,0,1-60.5,25.2c-60.42,20.61-116,25.79-154.37,14.79a95.36,95.36,0,0,1-20.45-8.3c-11.06-6.14-19.65-14.33-25.21-24.63a57.44,57.44,0,0,1-6.36-19.75h0c-.07-.39-.12-.77-.17-1.17-1.94-16.26,2.11-34.59,11.35-53.87.35-.72.69-1.45,1-2.16a209.36,209.36,0,0,1,20-32q-7.41,5.8-14.32,11.72c-27.59,23.57-49.51,48.28-64.29,72.13-14.35,23.15-22,45.48-21.46,65.14.05,2.14.2,4.23.45,6.31a58,58,0,0,0,6.53,20.94c12.25,22.67,39.19,35.21,74.88,38a243.94,243.94,0,0,0,51.14-1.91c39.36-5.28,84.12-19,129.46-40.67,0,0,0,0,0,0q8.79-4.19,17.64-8.83c2-1.06,4.1-2.16,6.16-3.27q16.8-9.1,32.34-19a487.66,487.66,0,0,0,53-38.51c4.39-3.68,8.6-7.38,12.71-11.1,1.71-1.56,3.4-3.12,5.06-4.7a344.27,344.27,0,0,0,28.4-29.93c3.12-3.73,6.1-7.45,8.89-11.19.3-.38.6-.78.88-1.16C625.14,96.08,624.84,96.33,624.52,96.56ZM290.5,217h0c.38.13.75.25,1.13.36Z"/>
              <path class="cls-2" d="M291.63,217.3,290.5,217h0C290.88,217.07,291.25,217.19,291.63,217.3Z"/>
            </g>
            <path class="cls-2" d="M688.81,99.42l-2.69,3-23-37.19c-6,6.33-11.88,12.13-16.31,16l3.94,16.46-2.7,3L637.15,85.8l-15.8-9.27,2.69-3,16.76,2.22c3.42-4.8,8.59-11.27,14.27-17.87l-39.36-19,2.69-3,50.72,6.76C678,33.75,685.71,27.5,688,29.56s-3.15,10.4-11.09,20.1Z"/>
            <g class="cls-5">
              <path class="cls-6" d="M290.5,216.94h0l1.13.35C291.25,217.19,290.88,217.07,290.5,216.94Z"/>
              <path class="cls-7" d="M534.36,263.51l-.17.74a125,125,0,0,1-24.33,51.95,120,120,0,0,1-44.81,34.73q-26.88,12.24-59.11,12.23H258.58L276.73,280a241.91,241.91,0,0,0,50.87-.7l-8,36.66h77.67q38.72,0,59.66-14.74t26.79-41.45l.17-.75c2.57-11.77,2.85-21.9.84-30.47v0c14.65-7.59,28.64-15.66,41.84-24.13a62.4,62.4,0,0,1,8,19.13Q539,242,534.36,263.51Z"/>
              <path class="cls-8" d="M565.35,46q-6.95-22-28.05-34T481,0H337.85L297.34,185.53a95.36,95.36,0,0,0,20.45,8.3c38.38,11,93.95,5.82,154.37-14.79a511.47,511.47,0,0,0,60.5-25.2,96.94,96.94,0,0,0,18.07-20.34,103.1,103.1,0,0,0,14.92-35.1Q572.28,67.94,565.35,46Zm-51.82,55.45q-5.65,26-22.92,39.21t-45.47,13.24H355L378.26,47.22h83.17q32,0,45,13.47T513.53,101.41Z"/>
              <g class="cls-9">
                <path class="cls-10" d="M290.5,216.94h0l1.13.35C291.25,217.19,290.88,217.07,290.5,216.94Z"/>
                <path class="cls-11" d="M624.52,96.56a519.27,519.27,0,0,1-73.06,47.58q-9.39,5.09-18.8,9.7a511.47,511.47,0,0,1-60.5,25.2c-60.42,20.61-116,25.79-154.37,14.79a95.36,95.36,0,0,1-20.45-8.3c-11.06-6.14-19.65-14.33-25.21-24.63a57.44,57.44,0,0,1-6.36-19.75h0c-.07-.39-.12-.77-.17-1.17-1.94-16.26,2.11-34.59,11.35-53.87.35-.72.69-1.45,1-2.16a209.36,209.36,0,0,1,20-32q-7.41,5.8-14.32,11.72c-27.59,23.57-49.51,48.28-64.29,72.13-14.35,23.15-22,45.48-21.46,65.14.05,2.14.2,4.23.45,6.31a58,58,0,0,0,6.53,20.94c12.25,22.67,39.19,35.21,74.88,38a243.94,243.94,0,0,0,51.14-1.91c39.36-5.28,84.12-19,129.46-40.67,0,0,0,0,0,0q8.79-4.19,17.64-8.83c2-1.06,4.1-2.16,6.16-3.27q16.8-9.1,32.34-19a487.66,487.66,0,0,0,53-38.51c4.39-3.68,8.6-7.38,12.71-11.1,1.71-1.56,3.4-3.12,5.06-4.7a344.27,344.27,0,0,0,28.4-29.93c3.12-3.73,6.1-7.45,8.89-11.19.3-.38.6-.78.88-1.16C625.14,96.08,624.84,96.33,624.52,96.56ZM290.5,217h0c.38.13.75.25,1.13.36Z"/>
                <path class="cls-12" d="M291.63,217.3,290.5,217h0C290.88,217.07,291.25,217.19,291.63,217.3Z"/>
              </g>
              <path class="cls-13" d="M688.81,99.42l-2.69,3-23-37.19c-6,6.33-11.88,12.13-16.31,16l3.94,16.46-2.7,3L637.15,85.8l-15.8-9.27,2.69-3,16.76,2.22c3.42-4.8,8.59-11.27,14.27-17.87l-39.36-19,2.69-3,50.72,6.76C678,33.75,685.71,27.5,688,29.56s-3.15,10.4-11.09,20.1Z"/>
            </g>
          </g>
        </g>
      </g>
    </g>
  </g>
</svg>
